<svg width="118" height="118" viewBox="0 0 118 118" fill="none" xmlns="http://www.w3.org/2000/svg">
<g clip-path="url(#clip0_49_22)">
<path d="M1.50638 47.7022H0V57.4937H1.50638V47.7022Z" fill="#3A5569"/>
<path d="M7.02988 47.7022H5.5235V57.4937H7.02988V47.7022Z" fill="#3A5569"/>
<path d="M12.5531 47.7022H11.0468V57.4937H12.5531V47.7022Z" fill="#3A5569"/>
<path d="M18.0766 47.7022H16.5703V57.4937H18.0766V47.7022Z" fill="#3A5569"/>
<path d="M23.851 47.7022H22.3446V57.4937H23.851V47.7022Z" fill="#3A5569"/>
<path d="M29.3745 47.7022H27.8681V57.4937H29.3745V47.7022Z" fill="#3A5569"/>
<path d="M34.898 47.7022H33.3916V57.4937H34.898V47.7022Z" fill="#3A5569"/>
<path d="M84.6086 47.7022H83.1022V57.4937H84.6086V47.7022Z" fill="#3A5569"/>
<path d="M90.1319 47.7022H88.6255V57.4937H90.1319V47.7022Z" fill="#3A5569"/>
<path d="M95.6554 47.7022H94.149V57.4937H95.6554V47.7022Z" fill="#3A5569"/>
<path d="M101.179 47.7022H99.6725V57.4937H101.179V47.7022Z" fill="#3A5569"/>
<path d="M106.702 47.7022H105.196V57.4937H106.702V47.7022Z" fill="#3A5569"/>
<path d="M112.477 47.7022H110.97V57.4937H112.477V47.7022Z" fill="#3A5569"/>
<path d="M118 47.7022H116.494V57.4937H118V47.7022Z" fill="#3A5569"/>
<path d="M118 46.6979H0V48.4554H118V46.6979Z" fill="#3A5569"/>
<path d="M59.0001 0L38.1616 20.085H79.8383L59.0001 0Z" fill="#F7B044"/>
<path d="M38.1616 57.9958H79.8383V20.0851H38.1616V57.9958Z" fill="#60C3AB"/>
<path d="M118 56.2383H0V118H118V56.2383Z" fill="#60C3AB"/>
<path d="M118 109.715H0V118H118V109.715Z" fill="#3A5569"/>
<path d="M83.3532 74.3149L88.1235 71.3021L59.0001 42.4299L29.8765 71.3021L34.6468 74.3149H83.3532Z" fill="#637888"/>
<path d="M83.1022 74.3149L59.0001 50.9659L34.8979 74.3149V118H83.1022V74.3149Z" fill="#A2D8CA"/>
<path d="M68.7916 95.6554H48.9575V118H68.7916V95.6554Z" fill="#3A5569"/>
<path d="M24.6044 65.5277H11.549V78.834H24.6044V65.5277Z" fill="#FAECE1"/>
<path d="M24.6044 89.3787H11.549V102.685H24.6044V89.3787Z" fill="#FAECE1"/>
<path d="M106.451 65.5277H93.3958V78.834H106.451V65.5277Z" fill="#FAECE1"/>
<path d="M54.7318 25.8597H44.4383V38.1619H54.7318V25.8597Z" fill="#FAECE1"/>
<path d="M73.5617 25.8597H63.2681V38.1619H73.5617V25.8597Z" fill="#FAECE1"/>
<path d="M106.451 89.3787H93.3958V102.685H106.451V89.3787Z" fill="#FAECE1"/>
<path d="M65.5277 72.3064H52.4723V85.6127H65.5277V72.3064Z" fill="#FAECE1"/>
</g>
<defs>
<clipPath id="clip0_49_22">
<rect width="118" height="118" fill="white"/>
</clipPath>
</defs>
</svg>
